<mxfile host="app.diagrams.net" modified="2024-06-12T20:32:22.126Z" agent="Mozilla/5.0 (X11; Linux x86_64) AppleWebKit/537.36 (KHTML, like Gecko) Chrome/125.0.0.0 Safari/537.36" version="24.5.4" etag="4cfO0uH6qRn6fuu5JzI6" type="github">
  <diagram name="Page-1" id="Icxirsx4BNU4DdNYSUX9">
    <mxGraphModel>
      <root>
        <mxCell id="0" />
        <mxCell id="1" parent="0" />
      </root>
    </mxGraphModel>
  </diagram>
</mxfile>
